<svg width="136" height="68" fill="none" xmlns="http://www.w3.org/2000/svg"><g clip-path="url(#clip0_1093_39675)" fill="#0E1DB0"><path d="M120 44.731a9.608 9.608 0 0 1-2.651 1.474c-.764.279-1.552.47-2.349.616a14.858 14.858 0 0 1-3.546.215c-1.35-.08-2.663-.34-3.921-.848-1.735-.7-3.121-1.832-4.181-3.367-.876-1.27-1.452-2.673-1.817-4.166a17.903 17.903 0 0 1-.466-3.372 22.867 22.867 0 0 1-.028-1.994c.064-1.675.271-3.326.853-4.91.522-1.42 1.238-2.734 2.256-3.863a10.225 10.225 0 0 1 4.792-3.017 13.516 13.516 0 0 1 3.25-.543c1.008-.043 2.01.004 3.009.108a18.39 18.39 0 0 1 3.721.801c.046.015.089.038.135.054.056.02.072.065.065.114-.01.07-.033.14-.05.21l-.889 3.666-.007.035c-.032.116-.065.136-.182.093a10.498 10.498 0 0 0-1.784-.486c-.896-.163-1.802-.208-2.712-.219a9.555 9.555 0 0 0-1.88.153c-.989.186-1.909.538-2.702 1.175a6.165 6.165 0 0 0-1.707 2.183c-.416.869-.67 1.785-.816 2.735-.195 1.263-.2 2.532-.12 3.8.074 1.189.312 2.348.784 3.45.386.902.907 1.706 1.642 2.366.816.734 1.777 1.153 2.844 1.361.395.077.796.117 1.192.113.924-.011 1.835-.133 2.687-.528.175-.081.338-.188.507-.28a.346.346 0 0 0 .2-.351c-.013-.327-.004-.654-.004-.98v-3.196c0-.362-.007-.305-.316-.344-.553-.07-1.108-.12-1.661-.178l-2.456-.26c-.277-.03-.554-.06-.83-.093-.168-.02-.169-.026-.176-.205v-.11-2.395c0-.06.002-.121.004-.181.003-.073.046-.106.116-.11.048-.003.096-.004.145-.004h8.87c.06 0 .12.011.18.018v11.258l-.001.002zM62.82 34.107c0-3.994 0-7.989.002-11.983 0-.44-.084-.42.438-.509a38.045 38.045 0 0 1 5.566-.509c.18-.001.362-.023.544-.025 1.31-.008 2.613.078 3.91.271 1.295.194 2.528.572 3.64 1.277 1.665 1.053 2.742 2.528 3.163 4.464.15.689.215 1.385.221 2.088.007.728-.026 1.45-.15 2.17a7.485 7.485 0 0 1-2.046 4.01c-1.11 1.144-2.467 1.855-3.997 2.254a13.477 13.477 0 0 1-3.559.442c-.46-.004-.92.003-1.38-.014-.412-.016-.822-.057-1.233-.088-.192-.015-.198-.012-.202.19-.001.085 0 .17 0 .255v7.917c-.004.236-.004.24-.243.24h-4.508c-.143-.007-.158-.022-.162-.175-.003-.109-.002-.218-.002-.326V34.109l-.002-.002zm4.915-4.536V33.2c0 .096-.002.193.001.29.004.104.042.147.147.172.047.011.095.018.144.024 1.233.14 2.464.137 3.69-.078a4.76 4.76 0 0 0 1.563-.558 3.435 3.435 0 0 0 1.646-2.121 5.707 5.707 0 0 0 .184-1.976c-.035-.472-.118-.935-.325-1.367-.44-.923-1.165-1.527-2.115-1.875-.642-.235-1.315-.32-1.992-.362-.775-.048-1.549.004-2.32.076-.169.016-.336.045-.504.07-.067.01-.108.054-.112.122a4.995 4.995 0 0 0-.006.29v3.665h-.001zM98.977 41.522c.095.37.193.742.287 1.117a1440.513 1440.513 0 0 1 .666 2.674c.043.205.042.214-.13.327-.642.424-1.347.707-2.088.905-.69.185-1.395.296-2.105.384a16.7 16.7 0 0 1-3.046.105c-1.522-.088-2.994-.406-4.385-1.052a9.118 9.118 0 0 1-2.336-1.58c-1.154-1.062-1.955-2.36-2.552-3.794-.51-1.226-.806-2.504-.97-3.82-.178-1.421-.195-2.848-.118-4.273.077-1.429.3-2.837.785-4.192.393-1.098.907-2.138 1.593-3.085 1.33-1.833 3.076-3.092 5.253-3.743a12.897 12.897 0 0 1 3.14-.537c.934-.04 1.863.01 2.791.083 1.055.083 2.083.302 3.095.6.197.058.39.13.582.204.156.059.171.082.137.238-.07.331-.15.66-.226.99-.22.954-.442 1.907-.664 2.86-.028.123-.068.147-.175.1-.921-.406-1.898-.56-2.892-.638a19.583 19.583 0 0 0-1.814-.059c-.844.011-1.663.152-2.441.486-1.396.597-2.405 1.598-3.062 2.959-.371.768-.594 1.582-.739 2.42-.204 1.185-.263 2.38-.204 3.578.06 1.249.255 2.476.71 3.65.318.82.752 1.57 1.355 2.217a6.025 6.025 0 0 0 3.307 1.836c.947.19 1.9.173 2.857.087a8.308 8.308 0 0 0 2.914-.833c.14-.069.28-.142.42-.212.008-.005.022 0 .053 0l.002-.002zM58.136 33.996v14.525c0 .553.066.471-.485.479-.073 0-.145 0-.218-.003-.07-.002-.114-.04-.119-.11-.006-.084-.005-.168-.005-.253V19.367c0-.404-.033-.366.376-.364.512.003.451-.068.451.433.002 4.854.001 9.708.001 14.561zM32.073 43.124v-.726c0-.354.056-.7.17-1.034.22-.651.664-1.047 1.353-1.164.353-.06.701-.047 1.044.043.43.113.755.37.97.762.142.26.2.543.232.833.01.09-.026.126-.126.13-.097.004-.194.002-.291.002-.292-.003-.311.038-.376-.292-.127-.652-.589-.97-1.326-.824-.399.078-.633.333-.763.698-.106.3-.136.614-.144.928-.01.436-.01.871 0 1.307.006.302.046.603.151.89a1.273 1.273 0 0 0 1.884.644c.18-.11.277-.247.26-.473-.02-.276-.002-.556-.005-.834-.002-.192-.023-.212-.203-.215-.23-.004-.46 0-.69-.003-.164-.002-.177-.012-.177-.158.003-.536-.074-.476.445-.479.4-.002.8-.002 1.199.002.146.001.172.027.173.17.002.617 0 1.233.004 1.85a.413.413 0 0 1-.113.294 1.8 1.8 0 0 1-.904.576 2.69 2.69 0 0 1-1.223.05c-.627-.125-1.062-.503-1.316-1.084a2.79 2.79 0 0 1-.228-1.094c-.004-.266 0-.532 0-.798v-.001zM49.71 32.362c.06-.274.212-.41.455-.407.048 0 .097 0 .145.002.07.001.113.035.116.107.003.085.005.17.005.254v3.994c0 .293-.025.578-.147.85a1.259 1.259 0 0 1-.778.717c-.66.216-1.266.074-1.819-.325-.152-.11-.128-.158-.054-.271.053-.082.096-.168.148-.25.053-.082.091-.09.172-.022.29.247.621.368 1.005.331.4-.038.65-.258.72-.649.028-.166.035-.336.047-.504.003-.059.015-.132-.04-.167-.062-.04-.107.023-.151.062-.307.268-.668.32-1.055.254a1.2 1.2 0 0 1-.824-.544 1.709 1.709 0 0 1-.26-.634 5.321 5.321 0 0 1 .033-2.231c.036-.154.102-.297.18-.435.428-.765 1.53-.787 1.977-.297.032.035.058.076.125.164v.001zm.02 1.73c0-.276-.003-.555.003-.832a.6.6 0 0 0-.113-.372c-.21-.3-.501-.406-.852-.354a.71.71 0 0 0-.614.544 3.982 3.982 0 0 0-.007 2.073c.087.34.325.53.675.565.358.037.634-.104.826-.41a.542.542 0 0 0 .084-.307c-.004-.302-.002-.604-.002-.905v-.001zM48.189 45.79c-.056.07-.027.157-.027.236-.003.508 0 1.016-.003 1.524 0 .155-.013.169-.168.167-.642-.008-.543.1-.545-.521-.005-1.67-.001-3.34-.001-5.011 0-.11 0-.218.002-.327 0-.07.035-.113.106-.12.048-.005.096-.005.145-.006.256-.006.413.111.47.352.095-.012.134-.097.196-.15.568-.485 1.518-.336 1.908.3.161.264.242.556.273.858a8.08 8.08 0 0 1 .002 1.595c-.028.29-.106.57-.252.827-.207.36-.512.571-.93.615-.388.042-.748-.01-1.05-.286-.032-.03-.062-.076-.126-.052zm-.03-1.89v.943c0 .083-.004.167.044.245.17.282.416.44.745.435.325-.005.583-.135.735-.442a1.69 1.69 0 0 0 .16-.736c.004-.29.004-.58 0-.87a1.926 1.926 0 0 0-.09-.571c-.175-.543-.593-.662-1.06-.562-.31.066-.53.365-.534.688-.003.29 0 .58 0 .87zM28.16 23.587v-2.469-.29c0-.084.035-.138.127-.14.06-.002.12-.003.181-.003h1.563c.183 0 .362.02.54.065.52.135.876.46 1.064.953.2.529.185 1.071-.015 1.598-.181.478-.555.752-1.043.87a2.22 2.22 0 0 1-.576.064c-.314-.008-.63-.003-.945.001-.116.002-.146.034-.147.157-.003.544 0 1.089-.003 1.633-.005.563.07.462-.484.473-.049 0-.098 0-.146-.003-.07-.005-.11-.044-.113-.114-.004-.096-.004-.194-.004-.29v-2.505zm.744-1.127v.976c0 .079.024.151.115.151.386 0 .774.018 1.158-.013.396-.033.672-.26.778-.652a1.57 1.57 0 0 0-.017-.927c-.127-.375-.379-.622-.785-.647-.373-.023-.748-.006-1.122-.005-.088 0-.127.057-.127.14v.977zM17 34.07c.024-.47.022-.941.002-1.412.002-.063.004-.126.008-.19l.01-.091c.019-.37.124-.715.3-1.036.369-.671.957-.965 1.707-.958.156.002.316.024.467.06.519.123.88.44 1.089.927.048.11.089.227.11.345.128.755.195.615-.486.626-.173.004-.177-.004-.201-.18a2.591 2.591 0 0 0-.123-.529c-.117-.327-.343-.512-.685-.571-.557-.097-1.008.133-1.245.646a1.986 1.986 0 0 0-.19.806c-.008.58-.01 1.16 0 1.74.006.304.077.6.214.874a1.104 1.104 0 0 0 1.583.433.774.774 0 0 0 .308-.393c.086-.228.127-.465.154-.695.085-.065.173-.05.256-.048.598.012.53-.109.428.559-.031.201-.113.393-.219.573a1.506 1.506 0 0 1-.851.695 2.232 2.232 0 0 1-1.003.096c-.58-.078-1.01-.386-1.293-.892a2.494 2.494 0 0 1-.323-1.104l-.01-.092-.009-.19.002.002zM44.035 25.494c.109.048.152.125.204.19.204.25.265.225-.05.515-.08.073-.175.132-.271.18a1.98 1.98 0 0 1-1.687.046c-.49-.201-.727-.62-.832-1.116a2.77 2.77 0 0 1-.065-.648c.011-.362-.016-.725.046-1.086a2.3 2.3 0 0 1 .238-.72 1.377 1.377 0 0 1 1.126-.754c.205-.02.41-.011.614.032.393.084.68.302.861.66.088.173.142.357.18.549.07.368.09.865.03 1.206H42.4c-.084 0-.17 0-.253.008-.053.003-.092.039-.091.092.008.303.033.605.188.877a.787.787 0 0 0 .574.402c.404.068.77-.003 1.073-.3.043-.042.089-.083.143-.133zm-1.127-1.554H43.56c.143-.007.18-.04.174-.166a1.994 1.994 0 0 0-.088-.533c-.105-.318-.316-.498-.623-.518-.34-.023-.614.082-.783.402-.11.209-.134.435-.17.66-.016.098.04.152.151.154.23.003.459 0 .688 0zM35.172 25.481c.07.077.129.137.181.202.218.261.216.273-.022.492a1.462 1.462 0 0 1-.67.344 2.208 2.208 0 0 1-1.11-.016c-.466-.129-.776-.432-.944-.878a2.16 2.16 0 0 1-.151-.742c-.006-.47-.04-.942.058-1.41.062-.3.167-.579.353-.825.213-.282.492-.457.841-.522a1.95 1.95 0 0 1 .757.009c.421.085.718.325.898.715.113.244.172.504.195.768.023.264.015.531.022.797.002.09-.04.133-.13.133H33.488c-.072 0-.145 0-.217.008-.052.006-.084.045-.087.098-.02.307.027.603.177.875.11.201.284.335.504.384.397.09.77.038 1.09-.238l.218-.194h-.002zm-1.16-1.545v.005h.471c.388 0 .398.04.346-.41a1.582 1.582 0 0 0-.077-.316c-.097-.29-.293-.468-.606-.492-.324-.026-.6.064-.771.363-.13.226-.168.476-.192.729-.007.068.032.118.103.12.242.002.484 0 .725 0zM39.248 43.903c.004-.34.012-.678.108-1.008.134-.459.386-.835.817-1.063a1.614 1.614 0 0 1 2.234.775c.035.076.065.156.086.238.191.73.198 1.463-.023 2.183-.157.513-.492.898-1.025 1.042-.892.24-1.687-.094-2.03-.99a2.04 2.04 0 0 1-.141-.634l-.025-.544zm.732-.011c.009.193.012.386.028.578.02.231.093.449.218.645a.846.846 0 0 0 1.107.322c.275-.13.414-.37.475-.648a4 4 0 0 0 .008-1.687 1.129 1.129 0 0 0-.302-.568c-.33-.336-.83-.345-1.161-.002a1.224 1.224 0 0 0-.28.5c-.09.281-.086.57-.093.86zM24.862 34.173c.017.213-.015.464-.052.716-.034.229-.105.448-.218.648-.337.595-.855.868-1.534.824-.654-.042-1.104-.385-1.366-.975a2.023 2.023 0 0 1-.144-.485 5.026 5.026 0 0 1 .003-1.584 1.84 1.84 0 0 1 .182-.548 1.602 1.602 0 0 1 2.124-.758c.446.2.718.56.872 1.012.093.276.125.565.133.856.003.084 0 .169 0 .294zm-.73.017c0-.148.007-.257 0-.364-.022-.314-.077-.617-.237-.899-.313-.554-1.124-.558-1.43-.005-.089.16-.164.323-.194.502a4.161 4.161 0 0 0 0 1.403c.033.191.112.366.215.532.337.545 1.217.502 1.478-.11.052-.123.098-.246.119-.378.037-.24.064-.478.049-.68zM45.663 45.82c-.066-.001-.109.045-.157.08-.36.263-.764.29-1.179.2-.318-.068-.528-.284-.661-.572a1.843 1.843 0 0 1-.162-.63 5.134 5.134 0 0 1-.013-.398v-2.393c0-.096 0-.193.01-.29.003-.027.039-.051.063-.075.008-.007.023-.007.035-.007.192.002.386-.03.576.022.099.168.042.352.043.526.007.762.005 1.523.002 2.285 0 .195.013.386.09.569.114.272.305.383.603.347.108-.012.218-.019.316-.072.283-.157.463-.369.459-.718-.009-.858-.003-1.716-.003-2.574 0-.097 0-.194.005-.29.003-.055.04-.083.093-.092a.372.372 0 0 1 .072-.006c.657.01.543-.099.547.517.006 1.135.001 2.272.001 3.408l-.001.29c-.002.07-.038.114-.11.117a6.447 6.447 0 0 1-.326.006c-.224-.002-.224-.003-.302-.251zM44.239 32.316c.097-.079.167-.143.243-.197a1.298 1.298 0 0 1 1.07-.215c.331.07.564.272.697.58.09.212.148.435.154.668.007.265.01.532.01.797.002.653 0 1.306 0 1.96 0 .084.002.169-.002.253-.004.089-.057.127-.142.127h-.036c-.643-.01-.544.091-.549-.523-.005-.774 0-1.548-.002-2.322 0-.145.001-.29-.038-.431-.126-.462-.61-.65-1.001-.372-.264.188-.437.428-.429.788.018.822.006 1.645.006 2.467 0 .096-.002.193-.008.289-.003.052-.036.087-.09.096-.012.001-.024.006-.036.006-.688-.006-.58.104-.582-.523-.006-1.136-.002-2.273-.002-3.41 0-.096 0-.194.005-.29.003-.051.027-.099.083-.1.169-.006.338-.005.507-.003.059 0 .08.052.093.097.02.076.03.154.05.257l-.001.001zM26.489 32.29c.098-.024.154-.11.23-.167.312-.23.66-.294 1.034-.227a.94.94 0 0 1 .72.55c.12.257.18.53.182.808.008.944.003 1.889.003 2.832a.823.823 0 0 1-.009.108c-.007.057-.046.08-.098.088a.437.437 0 0 1-.072.007c-.642-.01-.544.097-.548-.521-.006-.775-.002-1.55-.001-2.324 0-.157-.005-.313-.053-.466-.122-.385-.498-.575-.863-.4-.32.153-.543.388-.538.785.01.836.003 1.67.002 2.506 0 .084.003.17-.001.254-.006.141-.027.167-.178.166-.644-.008-.546.1-.55-.52-.004-1.137-.001-2.275-.001-3.413 0-.096 0-.193.005-.29.003-.07.046-.106.117-.108.133-.002.266-.004.4-.002.139.003.141.008.163.138.011.066-.024.147.056.196zM35.57 36.035c-.069-.005-.107.049-.153.083-.325.234-.687.283-1.072.224-.38-.058-.638-.278-.785-.626a2.005 2.005 0 0 1-.163-.776c-.005-.93-.003-1.863-.001-2.794 0-.167.022-.186.187-.19.133-.003.267 0 .4 0 .09 0 .128.054.128.139.002.096.002.194.002.29v2.141c0 .242.01.481.067.72.078.324.34.56.776.445a.831.831 0 0 0 .328-.15c.183-.151.301-.325.297-.587-.013-.846-.005-1.693-.005-2.54 0-.084.002-.169 0-.254-.003-.172.024-.209.21-.205.606.013.517-.097.52.511.004 1.137 0 2.274 0 3.41 0 .097.002.194-.002.29-.004.067-.037.115-.11.119a5.974 5.974 0 0 1-.29.004c-.233 0-.232-.001-.306-.233-.003-.01-.018-.015-.027-.022h-.001zM32.462 33.193h-.465c-.206-.003-.207-.003-.285-.22-.175-.483-.639-.538-.982-.4-.352.143-.454.697-.096.92.176.11.36.198.55.278.258.108.51.223.75.365.463.271.644.68.567 1.195-.075.51-.398.818-.877.961a1.9 1.9 0 0 1-1.11-.009 1.324 1.324 0 0 1-.952-1.164c-.008-.087.031-.136.124-.139.157-.004.314 0 .473-.003.07 0 .116.028.135.094.02.07.03.143.054.21.061.165.168.295.33.369.255.116.52.122.775.015.38-.16.451-.615.143-.89-.164-.146-.363-.24-.56-.332-.187-.088-.376-.168-.563-.255-.066-.03-.129-.066-.192-.102-.403-.23-.619-.568-.595-1.041.025-.465.255-.808.663-1.011a1.564 1.564 0 0 1 1.437-.002c.45.223.672.607.676 1.16zM48.27 23.664h-.667c-.026-.115-.047-.23-.078-.343-.11-.398-.34-.589-.714-.6-.414-.01-.705.183-.831.565-.041.125-.07.258-.08.39-.035.433-.034.869-.002 1.302.009.132.037.264.075.39.108.364.33.542.704.575.084.008.17.005.252-.004a.662.662 0 0 0 .57-.441c.044-.111.066-.231.101-.358.21-.042.422-.022.635-.018.009.785-.537 1.393-1.285 1.45a1.99 1.99 0 0 1-.683-.057c-.44-.119-.741-.395-.923-.804a2.092 2.092 0 0 1-.175-.7 8.592 8.592 0 0 1 .003-1.375c.025-.291.108-.569.253-.825.208-.368.522-.593.938-.676a2.17 2.17 0 0 1 .505-.04c.714.021 1.234.471 1.357 1.175.02.118.028.238.047.395l-.002-.001zM40.847 20.344c.05.13.027.25.02.37-.011.187.004.267-.251.229-.048-.007-.097-.003-.145 0-.23.012-.38.13-.466.341-.103.257-.073.523-.067.788 0 .053.04.086.094.089.17.005.339.007.508.012.07.003.114.042.115.113 0 .143.02.289-.019.437-.177.06-.36.022-.538.034-.14.01-.16.028-.165.176-.004.084-.002.169-.002.254v2.9c0 .097 0 .194-.004.29-.002.07-.039.11-.11.118-.023.002-.047.005-.071.004-.64-.013-.54.104-.543-.522-.006-.942-.002-1.885-.002-2.828 0-.096 0-.193-.006-.29a.1.1 0 0 0-.093-.095c-.097-.007-.194-.004-.29-.009-.163-.008-.175-.021-.18-.198a3.64 3.64 0 0 1 0-.18c.005-.19.017-.2.209-.21.107-.006.238.041.316-.034.092-.088.041-.23.043-.348.003-.218.01-.433.074-.645.168-.569.586-.877 1.227-.86.048.002.096.01.144.02.07.013.138.03.204.044h-.002zM50.647 25.913c0 .184-.002.328 0 .471 0 .09-.052.126-.128.147-.178.051-.359.063-.54.034a.723.723 0 0 1-.557-.418c-.11-.223-.131-.461-.131-.705v-2.285c-.001-.399.046-.41-.385-.404l-.146-.002c-.07 0-.111-.036-.12-.106-.003-.023-.003-.048-.003-.072.002-.451-.038-.404.371-.408.279-.003.28-.006.283-.282.003-.24.004-.48.006-.73.237-.037.45-.028.67-.006.05.248.02.49.026.73.008.282.005.282.276.29h.073c.307 0 .31-.026.306.326 0 .049 0 .098-.003.145-.006.069-.042.11-.114.111-.133.004-.266.001-.4.008-.08.004-.133.049-.134.138 0 .048-.003.096-.003.145 0 .749-.001 1.499.002 2.248 0 .108.011.218.032.323.049.24.135.308.37.311.07 0 .142-.006.25-.011l-.002.002zM40.161 30.938c0 .285-.002.563 0 .84.002.152.019.17.162.175.11.004.218 0 .327.003.13.004.162.025.16.139 0 .505.074.44-.398.444l-.109.002c-.084 0-.137.036-.141.125-.003.049-.003.097-.003.146 0 .762-.001 1.524.002 2.285 0 .109.008.219.032.324.051.218.163.295.392.289.06-.002.12-.015.194-.025.062.177.033.355.024.532-.002.027-.035.058-.06.08-.017.014-.045.015-.069.02-.669.175-1.12-.12-1.205-.77a2.9 2.9 0 0 1-.024-.361c-.003-.726-.001-1.451-.001-2.177v-.217c-.005-.246-.006-.247-.236-.25-.085-.002-.17.001-.255-.002-.164-.006-.174-.017-.178-.197-.002-.06 0-.12 0-.182-.003-.173.025-.203.21-.208.141-.004.314.066.418-.038.103-.104.024-.277.04-.418.023-.186-.049-.381.053-.56.214-.047.428-.036.664.002l.001-.001zM37.408 33.18v-2.646c0-.097.003-.193.007-.29.003-.053.034-.087.088-.097a.366.366 0 0 1 .072-.007c.644.011.546-.105.548.516.005 1.728.002 3.455.002 5.183 0 .096.002.193-.002.29-.005.124-.033.158-.144.16-.145.004-.29.003-.435 0-.087-.001-.133-.051-.134-.136-.002-.097-.002-.194-.002-.29V33.178zM36.928 43.908v-1.814c0-.085 0-.17.003-.254.003-.074.05-.105.118-.106.121-.001.242-.003.363-.001.166.001.166.003.228.189.025.075.066.089.127.026a.877.877 0 0 1 .79-.278c.13.017.158.048.164.189.004.06.004.121 0 .181-.005.108.039.23-.025.32-.074.102-.202.026-.304.03-.445.022-.73.315-.73.776-.005.846 0 1.693-.002 2.54 0 .381.043.367-.378.366-.388-.001-.354.024-.355-.35v-1.814h.001zM36.39 24.336v-1.814c0-.085.002-.17.008-.253a.096.096 0 0 1 .094-.092c.133-.008.266-.01.398-.01.166.002.166.004.22.198.02.077.07.095.126.034a.88.88 0 0 1 .744-.305c.171.012.212.05.216.218.004.12.004.241 0 .362-.004.145-.02.158-.17.159-.061 0-.121-.006-.181-.002a.75.75 0 0 0-.718.728c-.011.277-.002.556-.002.834v1.742c0 .084-.001.169-.005.253-.003.071-.046.106-.117.109a4.662 4.662 0 0 1-.145.002c-.525-.006-.466.066-.467-.458-.003-.569 0-1.137 0-1.705h-.001zM42.415 34.09v1.882c0 .072-.002.144-.008.216-.005.052-.036.093-.091.094-.17.005-.338.006-.507.004-.067 0-.113-.038-.12-.108a2.26 2.26 0 0 1-.005-.18v-3.763c0-.06.003-.12.007-.18.004-.056.04-.084.093-.092.012-.002.024-.005.035-.005.703.013.585-.122.593.541.007.53.002 1.062.002 1.592v-.001zM42.474 30.837a.423.423 0 0 1-.647.36.322.322 0 0 1-.15-.195.712.712 0 0 1-.022-.178c-.002-.278.156-.447.409-.441.24.005.415.2.41.454z"/></g><defs><clipPath id="clip0_1093_39675"><path fill="#fff" transform="translate(17 19)" d="M0 0h103v30H0z"/></clipPath></defs></svg>